<?xml version="1.0" encoding="UTF-8" standalone="no"?>
<svg width="357px" height="75px" viewBox="0 0 357 75" version="1.1" xmlns="http://www.w3.org/2000/svg" xmlns:xlink="http://www.w3.org/1999/xlink" xmlns:sketch="http://www.bohemiancoding.com/sketch/ns">
    <!-- Generator: Sketch 3.3.1 (12002) - http://www.bohemiancoding.com/sketch -->
    <title>LOGO</title>
    <desc>Created with Sketch.</desc>
    <defs></defs>
    <g id="Home" stroke="none" stroke-width="1" fill="none" fill-rule="evenodd" sketch:type="MSPage">
        <g id="default" sketch:type="MSArtboardGroup" transform="translate(-25.000000, -30.000000)" fill="#000000">
            <g id="Left-Sidebar" sketch:type="MSLayerGroup" transform="translate(25.000000, 30.000000)">
                <g id="LOGO" transform="translate(0.000000, 0.500000)" sketch:type="MSShapeGroup">
                    <path d="M57.3208652,74 L30.7872411,74 L4.96255319,74 C2.22808511,74 0,71.8049438 0,69.1110112 C0,68.1132584 0.202553191,67.3158876 0.607659574,66.6166292 L38.0783121,2.664 C38.8885248,1.16653933 40.5089504,0.269393258 42.3319291,0.269393258 C44.1549078,0.269393258 45.8766099,1.16653933 46.6868227,2.664 L84.1574752,66.5168539 C84.5625816,67.2152809 84.7651348,68.1132584 84.7651348,69.1110112 C84.7651348,71.8049438 82.5370496,74 79.8034255,74 L57.3208652,74" id="Fill-1"></path>
                    <path d="M117.950943,69.1110112 C117.950943,71.8049438 115.722858,74 112.98839,74 L98.0002979,74 C95.2658298,74 93.0377447,71.8049438 93.0377447,69.1110112 L93.0377447,6.85373034 C93.0377447,4.15979775 95.2658298,1.86579775 98.0002979,1.86579775 L112.98839,1.86579775 C115.722858,1.86579775 117.950943,4.15979775 117.950943,6.85373034 L117.950943,69.1110112" id="Fill-2"></path>
                    <path d="M156.030099,69.1110112 C156.030099,71.8049438 153.802014,74 151.067546,74 L136.079454,74 C133.344986,74 131.116901,71.8049438 131.116901,69.1110112 L131.116901,6.85373034 C131.116901,4.15979775 133.344986,1.86579775 136.079454,1.86579775 L151.067546,1.86579775 C153.802014,1.86579775 156.030099,4.15979775 156.030099,6.85373034 L156.030099,69.1110112" id="Fill-3"></path>
                    <path d="M219.971078,74 L188.373624,74 C175.51234,74 165.081695,63.7239775 165.081695,51.0525169 L165.081695,19.9242921 C165.081695,17.2303596 167.410213,15.0353034 170.144681,15.0353034 L219.971078,15.0353034 C222.704702,15.0353034 224.933631,17.2303596 224.933631,19.9242921 L224.933631,69.1110112 C224.933631,71.8049438 222.704702,74 219.971078,74" id="Fill-4"></path>
                    <path d="M273.069553,24.2146292 L263.245723,30.3998652 C261.827851,31.2986742 260.713809,32.8942472 260.713809,34.6902022 L260.713809,69.1110112 C260.713809,71.8049438 258.485723,74 255.751255,74 L240.763163,74 C238.028695,74 235.801454,71.8049438 235.801454,69.1110112 L235.801454,19.9242921 C235.801454,17.2303596 238.028695,15.0353034 240.763163,15.0353034 L270.638915,15.0353034 C273.372539,15.0353034 275.601468,17.2303596 275.601468,19.9242921 C275.601468,21.7202472 274.486582,23.3166517 273.069553,24.2146292" id="Fill-5"></path>
                    <path d="M328.87127,74 L302.337645,74 L276.513801,74 C273.779333,74 271.551248,71.8049438 271.551248,69.1110112 C271.551248,68.1132584 271.753801,67.3158876 272.158908,66.6166292 L309.62956,2.664 C310.439773,1.16653933 312.060199,0.269393258 313.883177,0.269393258 C315.706156,0.269393258 317.427014,1.16653933 318.238071,2.664 L355.708723,66.5168539 C356.11383,67.2152809 356.316383,68.1132584 356.316383,69.1110112 C356.316383,71.8049438 354.088298,74 351.35383,74 L328.87127,74" id="Fill-6"></path>
                </g>
            </g>
        </g>
    </g>
</svg>