<?xml version="1.0" encoding="utf-8"?>
<!-- Generator: Adobe Illustrator 19.1.0, SVG Export Plug-In . SVG Version: 6.00 Build 0)  -->
<svg version="1.1" id="Layer_1" xmlns:sketch="http://www.bohemiancoding.com/sketch/ns"
	 xmlns="http://www.w3.org/2000/svg" xmlns:xlink="http://www.w3.org/1999/xlink" x="0px" y="0px" viewBox="-402 262 154 37"
	 style="enable-background:new -402 262 154 37;" xml:space="preserve">
<style type="text/css">
	.st0{fill:#2A2A2B;}
</style>
<title>paragraph Decoration</title>
<desc>Created with Sketch.</desc>
<g id="Home" sketch:type="MSPage">
	<g id="default" transform="translate(-129.000000, -933.000000)" sketch:type="MSArtboardGroup">
		<g id="Left-Sidebar" transform="translate(25.000000, 30.000000)" sketch:type="MSLayerGroup">
			<g id="paragraph-Decoration" transform="translate(80.000000, 886.000000)" sketch:type="MSShapeGroup">
				<path id="Fill-1" class="st0" d="M-377.6,279.2h14.5v5.3h-14.5V279.2z"/>
				<path id="Fill-2" class="st0" d="M-356.6,279.2h13.3v5.3h-13.3V279.2z"/>
				<path id="Fill-3" class="st0" d="M-293.4,279.2h10.3v5.3h-10.3V279.2z"/>
				<path id="Fill-4" class="st0" d="M-333.1,279.2h7.2v5.3h-7.2V279.2z"/>
				<path id="Fill-5" class="st0" d="M-319.8,279.2h21.6v5.3h-21.6V279.2z"/>
				<path id="Fill-6" class="st0" d="M-269.3,279.2h8.4v5.3h-8.4V279.2z"/>
				<path id="Fill-7" class="st0" d="M-257.3,279.2h7.2v5.3h-7.2V279.2z"/>
				<path id="Fill-8" class="st0" d="M-244,279.2h4.2v5.3h-4.2V279.2z"/>
				<path id="Fill-9" class="st0" d="M-236.2,279.2h12.1v5.3h-12.1V279.2z"/>
				<path id="Fill-10" class="st0" d="M-239.2,289.9h15.1v5h-15.1V289.9z"/>
				<path id="Fill-11" class="st0" d="M-258.4,289.9h13.2v5h-13.2V289.9z"/>
				<path id="Fill-12" class="st0" d="M-318.6,289.9h10.8v5h-10.8V289.9z"/>
				<path id="Fill-13" class="st0" d="M-275.9,289.9h7.2v5h-7.2V289.9z"/>
				<path id="Fill-14" class="st0" d="M-304.1,289.9h22.2v5h-22.2V289.9z"/>
				<path id="Fill-15" class="st0" d="M-340.9,289.9h8.4v5h-8.4V289.9z"/>
				<path id="Fill-16" class="st0" d="M-351.7,289.9h7.2v5h-7.2V289.9z"/>
				<path id="Fill-17" class="st0" d="M-362,289.9h4.3v5h-4.3V289.9z"/>
				<path id="Fill-18" class="st0" d="M-377.6,289.9h12.6v5h-12.6V289.9z"/>
				<path id="Fill-19" class="st0" d="M-377.6,300.3h14.5v5.2h-14.5V300.3z"/>
				<path id="Fill-20" class="st0" d="M-356.6,300.3h13.3v5.2h-13.3V300.3z"/>
				<path id="Fill-21" class="st0" d="M-307.8,300.3h39.2v5.2h-39.2V300.3z"/>
				<path id="Fill-22" class="st0" d="M-333.1,300.3h7.2v5.2h-7.2V300.3z"/>
				<path id="Fill-23" class="st0" d="M-257.3,300.3h7.2v5.2h-7.2V300.3z"/>
				<path id="Fill-24" class="st0" d="M-244,300.3h4.2v5.2h-4.2V300.3z"/>
				<path id="Fill-25" class="st0" d="M-236.2,300.3h12.1v5.2h-12.1V300.3z"/>
				<path id="Fill-26" class="st0" d="M-239.2,311h15.1v5h-15.1V311z"/>
				<path id="Fill-27" class="st0" d="M-258.4,311h13.2v5h-13.2V311z"/>
				<path id="Fill-28" class="st0" d="M-346.9,311h28.9v5h-28.9V311z"/>
				<path id="Fill-29" class="st0" d="M-275.9,311h7.2v5h-7.2V311z"/>
				<path id="Fill-30" class="st0" d="M-377.6,311h12.6v5h-12.6V311z"/>
			</g>
		</g>
	</g>
</g>
</svg>
