<?xml version="1.0" encoding="utf-8"?>
<!-- Generator: Adobe Illustrator 19.1.0, SVG Export Plug-In . SVG Version: 6.00 Build 0)  -->
<svg version="1.1" id="Layer_1" xmlns:sketch="http://www.bohemiancoding.com/sketch/ns"
	 xmlns="http://www.w3.org/2000/svg" xmlns:xlink="http://www.w3.org/1999/xlink" x="0px" y="0px"
	 viewBox="-302.5 242.3 359.3 76.7" style="enable-background:new -302.5 242.3 359.3 76.7;" xml:space="preserve">
<style type="text/css">
	.st0{fill:none;stroke:#2A2A2B;stroke-width:1.5;stroke-miterlimit:10;}
</style>
<title>LOGO</title>
<desc>Created with Sketch.</desc>
<g id="Home" sketch:type="MSPage">
	<g id="default" transform="translate(-25.000000, -30.000000)" sketch:type="MSArtboardGroup">
		<g id="Left-Sidebar" transform="translate(25.000000, 30.000000)" sketch:type="MSLayerGroup">
			<g id="LOGO" transform="translate(0.000000, 0.500000)" sketch:type="MSShapeGroup">
				<path id="Fill-1" class="st0" d="M-243.7,317h-26.5H-296c-2.7,0-5-2.2-5-4.9c0-1,0.2-1.8,0.6-2.5l37.5-64
					c0.8-1.5,2.4-2.4,4.3-2.4c1.8,0,3.5,0.9,4.4,2.4l37.5,63.9c0.4,0.7,0.6,1.6,0.6,2.6c0,2.7-2.2,4.9-5,4.9H-243.7"/>
				<path id="Fill-2" class="st0" d="M-183,312.1c0,2.7-2.2,4.9-5,4.9h-15c-2.7,0-5-2.2-5-4.9v-62.3c0-2.7,2.2-5,5-5h15
					c2.7,0,5,2.3,5,5V312.1"/>
				<path id="Fill-3" class="st0" d="M-145,312.1c0,2.7-2.2,4.9-5,4.9h-15c-2.7,0-5-2.2-5-4.9v-62.3c0-2.7,2.2-5,5-5h15
					c2.7,0,5,2.3,5,5V312.1"/>
				<path id="Fill-4" class="st0" d="M-81,317h-31.6c-12.9,0-23.3-10.3-23.3-22.9v-31.1c0-2.7,2.3-4.9,5.1-4.9H-81
					c2.7,0,5,2.2,5,4.9v49.2C-76.1,314.8-78.3,317-81,317"/>
				<path id="Fill-5" class="st0" d="M-27.9,267.2l-9.8,6.2c-1.4,0.9-2.5,2.5-2.5,4.3v34.4c0,2.7-2.2,4.9-5,4.9h-15
					c-2.7,0-5-2.2-5-4.9v-49.2c0-2.7,2.2-4.9,5-4.9h29.9c2.7,0,5,2.2,5,4.9C-25.4,264.7-26.5,266.3-27.9,267.2"/>
				<path id="Fill-6" class="st0" d="M27.9,317H1.3h-25.8c-2.7,0-5-2.2-5-4.9c0-1,0.2-1.8,0.6-2.5l37.5-64c0.8-1.5,2.4-2.4,4.3-2.4
					s3.5,0.9,4.4,2.4l37.5,63.9c0.4,0.7,0.6,1.6,0.6,2.6c0,2.7-2.2,4.9-5,4.9H27.9"/>
			</g>
		</g>
	</g>
</g>
</svg>
